<svg xmlns="http://www.w3.org/2000/svg" width="28" height="28" viewBox="0 0 28 28"><path data-name="排除 3" d="M24.5 26.677h-21a1 1 0 0 1-1-1v-24a1 1 0 0 1 1-1h21a1 1 0 0 1 1 1v24a1 1 0 0 1-1 1zM6.782 15.222a1.451 1.451 0 0 0-1.367.967 1.45 1.45 0 0 0 .456 1.61l4.165 4.163a1.442 1.442 0 0 0 1.026.425 1.441 1.441 0 0 0 1.025-.424 1.453 1.453 0 0 0 0-2.051l-1.794-1.791h10.981a1.451 1.451 0 0 0 1.45-1.45 1.451 1.451 0 0 0-1.45-1.45zm-.055-5.966a1.457 1.457 0 0 0-1.247.709 1.445 1.445 0 0 0 0 1.482 1.455 1.455 0 0 0 1.245.709h14.55a1.452 1.452 0 0 0 1.36-.956 1.453 1.453 0 0 0-.436-1.6l-4.178-4.18a1.458 1.458 0 0 0-1.051-.45 1.453 1.453 0 0 0-.363.046 1.451 1.451 0 0 0-1.039 1.04 1.448 1.448 0 0 0 .4 1.414l1.793 1.793H6.723z" fill="#aaabb7"/><g data-name="组 829"><path data-name="矩形 255" fill="none" d="M0 0h28v28H0z"/></g></svg>